<svg width="100" height="94" viewBox="0 0 100 94" fill="none" xmlns="http://www.w3.org/2000/svg">
<path d="M25.9876 69.156C26.3771 69.2859 26.7373 69.4913 27.0474 69.7605C27.3576 70.0297 27.6116 70.3574 27.7951 70.7248C27.9785 71.0922 28.0877 71.4922 28.1164 71.9019C28.1452 72.3115 28.0929 72.7228 27.9626 73.1123L24.8376 82.4873C24.7199 82.8908 24.522 83.2665 24.2557 83.5917C23.9894 83.917 23.6602 84.1852 23.2879 84.3803C22.9155 84.5754 22.5077 84.6934 22.0887 84.7272C21.6697 84.7609 21.2481 84.7098 20.8494 84.5769C20.4506 84.444 20.0827 84.2319 19.7678 83.9535C19.4528 83.6751 19.1973 83.336 19.0165 82.9565C18.8356 82.577 18.7332 82.165 18.7154 81.745C18.6975 81.325 18.7646 80.9057 18.9126 80.5123L22.0376 71.1373C22.2987 70.3508 22.8615 69.7002 23.6023 69.3287C24.343 68.9571 25.201 68.895 25.9876 69.156ZM44.7376 69.156C45.1271 69.2859 45.4873 69.4913 45.7974 69.7605C46.1076 70.0297 46.3616 70.3574 46.5451 70.7248C46.7285 71.0922 46.8377 71.4922 46.8664 71.9019C46.8952 72.3115 46.8429 72.7228 46.7126 73.1123L40.4626 91.8623C40.3449 92.2658 40.147 92.6415 39.8807 92.9667C39.6144 93.292 39.2852 93.5602 38.9129 93.7553C38.5405 93.9504 38.1327 94.0684 37.7137 94.1022C37.2947 94.1359 36.8731 94.0848 36.4744 93.9519C36.0756 93.819 35.7077 93.6069 35.3928 93.3285C35.0778 93.0501 34.8223 92.711 34.6415 92.3315C34.4606 91.952 34.3582 91.54 34.3404 91.12C34.3225 90.7 34.3896 90.2807 34.5376 89.8873L40.7876 71.1373C41.0487 70.3508 41.6115 69.7002 42.3523 69.3287C43.093 68.9571 43.951 68.895 44.7376 69.156V69.156ZM63.4876 69.156C63.8771 69.2859 64.2373 69.4913 64.5474 69.7605C64.8576 70.0297 65.1116 70.3574 65.2951 70.7248C65.4785 71.0922 65.5877 71.4922 65.6164 71.9019C65.6452 72.3115 65.5929 72.7228 65.4626 73.1123L62.3376 82.4873C62.2199 82.8908 62.0219 83.2665 61.7557 83.5917C61.4894 83.917 61.1602 84.1852 60.7879 84.3803C60.4155 84.5754 60.0077 84.6934 59.5887 84.7272C59.1697 84.7609 58.7481 84.7098 58.3493 84.5769C57.9506 84.444 57.5827 84.2319 57.2677 83.9535C56.9528 83.6751 56.6973 83.336 56.5165 82.9565C56.3356 82.577 56.2332 82.165 56.2154 81.745C56.1975 81.325 56.2646 80.9057 56.4126 80.5123L59.5376 71.1373C59.7987 70.3508 60.3615 69.7002 61.1023 69.3287C61.843 68.9571 62.701 68.895 63.4876 69.156ZM82.2376 69.156C82.6271 69.2859 82.9873 69.4913 83.2974 69.7605C83.6076 70.0297 83.8616 70.3574 84.0451 70.7248C84.2285 71.0922 84.3377 71.4922 84.3664 71.9019C84.3952 72.3115 84.3429 72.7228 84.2126 73.1123L77.9626 91.8623C77.8449 92.2658 77.6469 92.6415 77.3807 92.9667C77.1144 93.292 76.7852 93.5602 76.4129 93.7553C76.0405 93.9504 75.6327 94.0684 75.2137 94.1022C74.7947 94.1359 74.3731 94.0848 73.9743 93.9519C73.5756 93.819 73.2077 93.6069 72.8927 93.3285C72.5778 93.0501 72.3223 92.711 72.1415 92.3315C71.9606 91.952 71.8582 91.54 71.8404 91.12C71.8225 90.7 71.8896 90.2807 72.0376 89.8873L78.2876 71.1373C78.5487 70.3508 79.1115 69.7002 79.8523 69.3287C80.593 68.9571 81.451 68.895 82.2376 69.156ZM83.7813 25.4185C82.4834 18.8758 79.1265 12.9198 74.2013 8.4215C69.2762 3.92318 63.0411 1.11842 56.4078 0.417315C49.7745 -0.283792 43.0909 1.15552 37.3342 4.52482C31.5775 7.89412 27.0496 13.0167 24.4126 19.1435C21.4553 18.8028 18.4596 19.0693 15.6089 19.9267C12.7582 20.784 10.1125 22.2142 7.8338 24.1296C5.55506 26.045 3.69124 28.4054 2.35645 31.0662C1.02166 33.727 0.243995 36.6322 0.0710631 39.604C-0.101869 42.5758 0.333571 45.5516 1.35073 48.3493C2.36788 51.1469 3.94534 53.7076 5.98653 55.8744C8.02772 58.0412 10.4897 59.7685 13.2217 60.9508C15.9537 62.133 18.8982 62.7451 21.8751 62.7498H81.2501C86.007 62.7552 90.5882 60.9524 94.0656 57.7065C97.543 54.4606 99.6567 50.0143 99.9785 45.2682C100.3 40.5222 98.8062 35.8312 95.7988 32.1456C92.7913 28.46 88.4954 26.0553 83.7813 25.4185V25.4185Z" fill="#FCFCFC"/>
</svg>
