<svg width="111" height="105" viewBox="0 0 111 105" fill="none" xmlns="http://www.w3.org/2000/svg">
<path d="M79.5983 69.3654C78.8179 62.3327 75.6712 55.7739 70.6742 50.7642C65.6772 45.7545 59.1263 42.5912 52.0957 41.793C45.065 40.9948 37.9717 42.6091 31.9788 46.371C25.986 50.133 21.449 55.8195 19.1119 62.4982C13.7565 62.9366 8.77829 65.4295 5.21925 69.4551C1.66021 73.4807 -0.203697 78.727 0.0176859 84.0958C0.239068 89.4645 2.52858 94.5395 6.40697 98.2585C10.2854 101.977 15.452 104.052 20.8253 104.048H79.7856C84.3848 104.048 88.7956 102.221 92.0477 98.9688C95.2999 95.7167 97.1269 91.3059 97.1269 86.7067C97.1269 82.1075 95.2999 77.6967 92.0477 74.4445C88.7956 71.1924 84.3848 69.3654 79.7856 69.3654H79.5983Z" fill="white"/>
<path d="M72.8492 3.46825C72.8492 2.54842 72.4838 1.66625 71.8334 1.01583C71.1829 0.365404 70.3008 0 69.3809 0C68.4611 0 67.5789 0.365404 66.9285 1.01583C66.2781 1.66625 65.9127 2.54842 65.9127 3.46825V10.4048C65.9127 11.3246 66.2781 12.2068 66.9285 12.8572C67.5789 13.5076 68.4611 13.873 69.3809 13.873C70.3008 13.873 71.1829 13.5076 71.8334 12.8572C72.4838 12.2068 72.8492 11.3246 72.8492 10.4048V3.46825ZM98.8125 17.0916C99.1438 16.7716 99.408 16.3889 99.5898 15.9658C99.7716 15.5426 99.8672 15.0875 99.8712 14.627C99.8752 14.1665 99.7875 13.7098 99.6131 13.2836C99.4387 12.8573 99.1812 12.4701 98.8555 12.1445C98.5299 11.8188 98.1427 11.5613 97.7164 11.3869C97.2902 11.2125 96.8335 11.1248 96.373 11.1288C95.9125 11.1328 95.4574 11.2284 95.0342 11.4102C94.6111 11.592 94.2284 11.8562 93.9084 12.1874L88.9974 17.0916C88.3461 17.7428 87.9803 18.6261 87.9803 19.5471C87.9803 20.4681 88.3461 21.3514 88.9974 22.0026C89.6486 22.6539 90.5319 23.0197 91.4529 23.0197C92.3739 23.0197 93.2572 22.6539 93.9084 22.0026L98.8125 17.0916ZM44.8534 12.1874C44.1993 11.5557 43.3232 11.2061 42.4139 11.214C41.5045 11.2219 40.6346 11.5867 39.9916 12.2297C39.3485 12.8727 38.9838 13.7426 38.9759 14.652C38.968 15.5614 39.3175 16.4374 39.9493 17.0916L44.8534 22.0026C45.1759 22.3251 45.5587 22.5809 45.98 22.7554C46.4014 22.9299 46.8529 23.0197 47.309 23.0197C47.765 23.0197 48.2166 22.9299 48.6379 22.7554C49.0592 22.5809 49.442 22.3251 49.7645 22.0026C50.0869 21.6801 50.3427 21.2973 50.5173 20.876C50.6918 20.4547 50.7816 20.0031 50.7816 19.5471C50.7816 19.0911 50.6918 18.6395 50.5173 18.2182C50.3427 17.7968 50.0869 17.414 49.7645 17.0916L44.8534 12.1874ZM56.8813 35.5912C57.7435 33.8047 58.9787 32.2237 60.5037 30.9551C62.0287 29.6865 63.8081 28.7597 65.7218 28.2373C67.6354 27.7148 69.6389 27.6088 71.597 27.9264C73.5551 28.244 75.4223 28.9779 77.0727 30.0784C78.7231 31.179 80.1183 32.6208 81.1641 34.3064C82.2099 35.992 82.8821 37.8823 83.1353 39.8498C83.3885 41.8173 83.2168 43.8162 82.6318 45.7116C82.0468 47.6071 81.0621 49.3551 79.7441 50.8377C81.1244 52.7868 82.3245 54.8747 83.3233 57.0667C85.6741 54.9427 87.5088 52.31 88.6877 49.3694C89.8665 46.4287 90.3584 43.2577 90.1258 40.0981C89.8931 36.9385 88.9421 33.8737 87.3452 31.1374C85.7484 28.4011 83.5478 26.0656 80.9113 24.3089C78.2748 22.5521 75.272 21.4205 72.1319 21.0004C68.9917 20.5803 65.797 20.8827 62.7915 21.8846C59.7859 22.8866 57.0488 24.5615 54.7888 26.7818C52.5288 29.0021 50.8056 31.7091 49.7506 34.6964C52.1923 34.7727 54.5784 35.0779 56.8813 35.5912ZM87.9847 63.8506C92.1466 65.3419 95.7882 67.9431 98.542 71.2865C98.9197 70.9807 99.2288 70.5989 99.4494 70.166C99.6701 69.733 99.7973 69.2585 99.8228 68.7733C99.8483 68.288 99.7715 67.8028 99.5975 67.3491C99.4235 66.8954 99.156 66.4833 98.8125 66.1396L93.9084 61.2355C93.414 60.7381 92.7804 60.4023 92.0912 60.2724C91.402 60.1425 90.6897 60.2246 90.0481 60.5078C89.4065 60.791 88.8659 61.2621 88.4975 61.8589C88.1291 62.4557 87.9503 63.1501 87.9847 63.8506ZM100.595 38.1508C99.6754 38.1508 98.7932 38.5162 98.1428 39.1666C97.4924 39.8171 97.127 40.6992 97.127 41.6191C97.127 42.5389 97.4924 43.4211 98.1428 44.0715C98.7932 44.7219 99.6754 45.0873 100.595 45.0873H107.532C108.452 45.0873 109.334 44.7219 109.984 44.0715C110.635 43.4211 111 42.5389 111 41.6191C111 40.6992 110.635 39.8171 109.984 39.1666C109.334 38.5162 108.452 38.1508 107.532 38.1508H100.595Z" fill="white"/>
</svg>
