<svg width="506" height="491" viewBox="0 0 506 491" fill="none" xmlns="http://www.w3.org/2000/svg">
<path d="M118.36 466.329C118.36 472.608 115.866 478.629 111.426 483.068C106.987 487.507 100.966 490.001 94.6879 490.001C88.4097 490.001 82.3887 487.507 77.9493 483.068C73.51 478.629 71.016 472.608 71.016 466.329C71.016 460.051 73.51 454.03 77.9493 449.591C82.3887 445.152 88.4097 442.658 94.6879 442.658C100.966 442.658 106.987 445.152 111.426 449.591C115.866 454.03 118.36 460.051 118.36 466.329ZM131.237 348.791C135.203 350.116 138.481 352.961 140.351 356.701C142.221 360.441 142.53 364.77 141.211 368.738L125.43 416.082C124.835 418.12 123.836 420.017 122.491 421.66C121.147 423.302 119.484 424.657 117.604 425.642C115.724 426.627 113.664 427.223 111.548 427.393C109.432 427.564 107.303 427.306 105.289 426.635C103.275 425.963 101.418 424.893 99.8272 423.487C98.2367 422.08 96.9463 420.368 96.0332 418.452C95.12 416.535 94.6029 414.454 94.5127 412.333C94.4226 410.212 94.7613 408.095 95.5085 406.108L111.29 358.764C112.615 354.798 115.46 351.521 119.2 349.651C122.94 347.78 127.269 347.471 131.237 348.791ZM244.61 466.329C244.61 472.608 242.116 478.629 237.676 483.068C233.237 487.507 227.216 490.001 220.938 490.001C214.66 490.001 208.639 487.507 204.199 483.068C199.76 478.629 197.266 472.608 197.266 466.329C197.266 460.051 199.76 454.03 204.199 449.591C208.639 445.152 214.66 442.658 220.938 442.658C227.216 442.658 233.237 445.152 237.676 449.591C242.116 454.03 244.61 460.051 244.61 466.329ZM257.487 348.791C261.453 350.116 264.731 352.961 266.601 356.701C268.471 360.441 268.78 364.77 267.461 368.738L251.68 416.082C251.085 418.12 250.086 420.017 248.741 421.66C247.397 423.302 245.734 424.657 243.854 425.642C241.974 426.627 239.914 427.223 237.798 427.393C235.682 427.564 233.553 427.306 231.539 426.635C229.525 425.963 227.668 424.893 226.077 423.487C224.487 422.08 223.196 420.368 222.283 418.452C221.37 416.535 220.853 414.454 220.763 412.333C220.673 410.212 221.011 408.095 221.759 406.108L237.54 358.764C238.865 354.798 241.71 351.521 245.45 349.651C249.19 347.78 253.519 347.471 257.487 348.791ZM370.86 466.329C370.86 472.608 368.366 478.629 363.926 483.068C359.487 487.507 353.466 490.001 347.188 490.001C340.91 490.001 334.889 487.507 330.449 483.068C326.01 478.629 323.516 472.608 323.516 466.329C323.516 460.051 326.01 454.03 330.449 449.591C334.889 445.152 340.91 442.658 347.188 442.658C353.466 442.658 359.487 445.152 363.926 449.591C368.366 454.03 370.86 460.051 370.86 466.329ZM383.737 348.791C387.703 350.116 390.981 352.961 392.851 356.701C394.721 360.441 395.03 364.77 393.711 368.738L377.93 416.082C377.335 418.12 376.336 420.017 374.991 421.66C373.647 423.302 371.984 424.657 370.104 425.642C368.224 426.627 366.164 427.223 364.048 427.393C361.932 427.564 359.803 427.306 357.789 426.635C355.775 425.963 353.918 424.893 352.327 423.487C350.737 422.08 349.446 420.368 348.533 418.452C347.62 416.535 347.103 414.454 347.013 412.333C346.923 410.212 347.261 408.095 348.009 406.108L363.79 358.764C365.115 354.798 367.96 351.521 371.7 349.651C375.44 347.78 379.769 347.471 383.737 348.791ZM423.096 127.885C416.541 94.8439 399.589 64.7664 374.717 42.0498C349.845 19.3333 318.358 5.16927 284.86 1.62868C251.362 -1.91191 217.609 5.35664 188.538 22.3716C159.466 39.3865 136.6 65.2555 123.284 96.196C108.349 94.4756 93.2211 95.8214 78.8251 100.151C64.4292 104.481 51.0683 111.703 39.5607 121.376C28.0531 131.049 18.6408 142.968 11.9001 156.405C5.15943 169.842 1.23221 184.514 0.358902 199.521C-0.514407 214.529 1.68457 229.557 6.8212 243.685C11.9578 257.813 19.924 270.744 30.232 281.687C40.54 292.629 52.973 301.352 66.7696 307.323C80.5662 313.293 95.4362 316.384 110.469 316.408H410.313C434.335 316.435 457.47 307.331 475.031 290.939C492.592 274.547 503.267 252.093 504.892 228.126C506.517 204.158 498.971 180.469 483.784 161.857C468.596 143.244 446.902 131.1 423.096 127.885Z" fill="#00AEB9"/>
</svg>
