<svg width="119" height="119" viewBox="0 0 119 119" fill="none" xmlns="http://www.w3.org/2000/svg">
<path d="M59.5 21.2219C60.3767 21.2219 61.2175 20.8736 61.8374 20.2537C62.4573 19.6338 62.8056 18.793 62.8056 17.9164V6.31386C62.8056 5.43717 62.4573 4.59639 61.8374 3.97648C61.2175 3.35656 60.3767 3.0083 59.5 3.0083C58.6233 3.0083 57.7825 3.35656 57.1626 3.97648C56.5427 4.59639 56.1944 5.43717 56.1944 6.31386V17.9164C56.1944 18.793 56.5427 19.6338 57.1626 20.2537C57.7825 20.8736 58.6233 21.2219 59.5 21.2219Z" fill="white"/>
<path d="M59.5 97.7783C58.6233 97.7783 57.7825 98.1266 57.1626 98.7465C56.5427 99.3664 56.1944 100.207 56.1944 101.084V112.686C56.1944 113.563 56.5427 114.404 57.1626 115.024C57.7825 115.644 58.6233 115.992 59.5 115.992C60.3767 115.992 61.2175 115.644 61.8374 115.024C62.4573 114.404 62.8056 113.563 62.8056 112.686V101.084C62.8056 100.207 62.4573 99.3664 61.8374 98.7465C61.2175 98.1266 60.3767 97.7783 59.5 97.7783Z" fill="white"/>
<path d="M27.7666 32.4274C28.399 32.9689 29.2124 33.2519 30.0443 33.2198C30.8763 33.1876 31.6654 32.8428 32.2541 32.254C32.8429 31.6653 33.1877 30.8762 33.2199 30.0443C33.252 29.2123 32.969 28.3989 32.4275 27.7665L24.2297 19.5688C23.5973 19.0272 22.7839 18.7443 21.952 18.7764C21.1201 18.8085 20.3309 19.1534 19.7422 19.7421C19.1535 20.3308 18.8086 21.12 18.7765 21.9519C18.7443 22.7838 19.0273 23.5972 19.5689 24.2296L27.7666 32.4274Z" fill="white"/>
<path d="M91.2334 86.5727C90.601 86.0311 89.7876 85.7482 88.9557 85.7803C88.1237 85.8124 87.3346 86.1573 86.7459 86.746C86.1572 87.3347 85.8123 88.1239 85.7801 88.9558C85.748 89.7877 86.031 90.6012 86.5725 91.2335L94.7703 99.4313C95.4027 99.9728 96.2161 100.256 97.048 100.224C97.8799 100.192 98.6691 99.8467 99.2578 99.258C99.8465 98.6693 100.191 97.8801 100.224 97.0482C100.256 96.2162 99.9727 95.4028 99.4311 94.7705L91.2334 86.5727Z" fill="white"/>
<path d="M21.2217 59.4999C21.2217 58.6232 20.8734 57.7824 20.2535 57.1625C19.6336 56.5426 18.7928 56.1943 17.9161 56.1943H6.31361C5.43692 56.1943 4.59614 56.5426 3.97623 57.1625C3.35632 57.7824 3.00806 58.6232 3.00806 59.4999C3.00806 60.3766 3.35632 61.2174 3.97623 61.8373C4.59614 62.4572 5.43692 62.8055 6.31361 62.8055H17.9161C18.7928 62.8055 19.6336 62.4572 20.2535 61.8373C20.8734 61.2174 21.2217 60.3766 21.2217 59.4999Z" fill="white"/>
<path d="M112.686 56.1943H101.084C100.207 56.1943 99.3664 56.5426 98.7465 57.1625C98.1266 57.7824 97.7783 58.6232 97.7783 59.4999C97.7783 60.3766 98.1266 61.2174 98.7465 61.8373C99.3664 62.4572 100.207 62.8055 101.084 62.8055H112.686C113.563 62.8055 114.404 62.4572 115.024 61.8373C115.644 61.2174 115.992 60.3766 115.992 59.4999C115.992 58.6232 115.644 57.7824 115.024 57.1625C114.404 56.5426 113.563 56.1943 112.686 56.1943Z" fill="white"/>
<path d="M27.7666 86.5727L19.5689 94.7705C19.0273 95.4028 18.7443 96.2162 18.7765 97.0482C18.8086 97.8801 19.1535 98.6693 19.7422 99.258C20.3309 99.8467 21.1201 100.192 21.952 100.224C22.7839 100.256 23.5973 99.9728 24.2297 99.4313L32.4275 91.2335C32.969 90.6012 33.252 89.7877 33.2199 88.9558C33.1877 88.1239 32.8429 87.3347 32.2541 86.746C31.6654 86.1573 30.8763 85.8124 30.0443 85.7803C29.2124 85.7482 28.399 86.0311 27.7666 86.5727Z" fill="white"/>
<path d="M91.2334 32.4274L99.4311 24.2296C99.9727 23.5972 100.256 22.7838 100.224 21.9519C100.191 21.12 99.8465 20.3308 99.2578 19.7421C98.6691 19.1534 97.8799 18.8085 97.048 18.7764C96.2161 18.7443 95.4027 19.0272 94.7703 19.5688L86.5725 27.7665C86.031 28.3989 85.748 29.2123 85.7801 30.0443C85.8123 30.8762 86.1572 31.6653 86.7459 32.254C87.3346 32.8428 88.1237 33.1876 88.9557 33.2198C89.7876 33.2519 90.601 32.9689 91.2334 32.4274Z" fill="white"/>
<path d="M59.5 92.5554C77.7561 92.5554 92.5555 77.756 92.5555 59.4999C92.5555 41.2438 77.7561 26.4443 59.5 26.4443C41.2439 26.4443 26.4444 41.2438 26.4444 59.4999C26.4444 77.756 41.2439 92.5554 59.5 92.5554Z" fill="white"/>
</svg>
